<svg xmlns="http://www.w3.org/2000/svg" viewBox="0 0 80.23 98.59"><defs><style>.cls-1{fill:#fff;}</style></defs><g id="レイヤー_2" data-name="レイヤー 2"><g id="レイヤー_1-2" data-name="レイヤー 1"><g id="_6kIv34" data-name="6kIv34"><path class="cls-1" d="M42.82,62.64H9.37c-4,0-4.27.14-3.52,4,2.68,14,10.7,23.54,24.31,27.72,17.47,5.38,35-3.26,42.14-20.2.4-1,.69-2.31,2.12-1.82s.76,1.79.41,2.71A37.18,37.18,0,0,1,38.77,98.55C19.71,97.65,5.17,84,2.89,64.86c-.11-1,0-2-1.33-2.25-.9-.18-1.79-.51-1.51-1.69s1.3-1,2.15-1c6.11,0,12.22-.07,18.32,0,2.32,0,3.4-.32,3.39-3.09,0-5.33,3.88-8.46,7.59-11.42A67.38,67.38,0,0,1,48.35,35.9a7.31,7.31,0,0,0,3.9-3.24c1.24-2.18,2.75-4.22,4.2-6.28,1.21-1.74,2.63-3.28,1.41-5.74-.49-1,.37-2.22,1-3.2,3.44-5,6.85-10.09,10.33-15.1,1.68-2.43,4.13-3,6.24-1.58s2.55,4,.94,6.41C73,12.25,69.58,17.28,66.11,22.3c-.71,1-1.55,2.23-2.93,2.16-2.28-.11-3.13,1.53-4.22,3-.12.15-.19.34-.32.48-4.86,5.17-6.24,11.5-6.39,18.34a38.37,38.37,0,0,1-1.87,11.14c-.72,2.22.07,2.64,2.12,2.61,7.76-.08,15.51,0,23.27,0,.68,0,1.36,0,2,0,1.08.06,2.43.19,2.42,1.48,0,1.57-1.59,1.15-2.51,1.15C66.09,62.66,54.46,62.64,42.82,62.64Zm5.55-21.87a48.19,48.19,0,0,0-7.91,7.73,40.6,40.6,0,0,0-6.31,9.36c-.33.68-1.21,1.77.34,2s3.1.62,4.3-.9A59.51,59.51,0,0,0,48.37,40.77Zm-6.29,1.47a37.6,37.6,0,0,0-12.24,8.27c-1.86,2-3.5,4.21-3.47,7.13,0,.88,0,2.11,1.31,2.25,1.11.11,2.47.5,3.05-.94C33.29,52.54,37.67,47.4,42.08,42.24Zm31-39.43c-.93-.07-1.41.59-1.85,1.21-1.05,1.5-2.05,3.05-3.08,4.56L61.31,18.64c-.69,1-1.23,2.17.06,3s2.1-.25,2.77-1.2c.89-1.26,1.73-2.56,2.6-3.84,2.4-3.51,4.86-7,7.21-10.53C75.11,4.36,74.63,2.82,73.11,2.81ZM49.18,47.4c-2.34,3.64-4,7.67-6.67,11.08-.35.45-.56,1,.24,1.41,1.43.71,4-.17,4.5-1.69A31.46,31.46,0,0,0,49.18,47.4Z"/><path class="cls-1" d="M33,89a1.52,1.52,0,0,1-2.06,1.13C25,88.47,20.74,84.74,17.38,79.8c-.43-.64-.51-1.3.18-1.79.91-.65,1.59-.26,2.17.58a27.46,27.46,0,0,0,6.52,6.52,13.21,13.21,0,0,0,5,2.23A1.9,1.9,0,0,1,33,89Z"/><path class="cls-1" d="M16,71.75c.15,1.25-.18,1.7-.77,1.94a1.16,1.16,0,0,1-1.47-.63,17.8,17.8,0,0,1-2-5.11,1.14,1.14,0,0,1,.72-1.42c.56-.2,1.25-.24,1.53.38C14.78,68.67,15.47,70.48,16,71.75Z"/></g></g></g></svg>