<?xml version="1.0" standalone="no"?>
<!DOCTYPE svg PUBLIC "-//W3C//DTD SVG 20010904//EN"
 "http://www.w3.org/TR/2001/REC-SVG-20010904/DTD/svg10.dtd">
<svg version="1.0" xmlns="http://www.w3.org/2000/svg"
 width="107.000000pt" height="107.000000pt" viewBox="0 0 107.000000 107.000000"
 preserveAspectRatio="xMidYMid meet">
<metadata>
Created by potrace 1.11, written by Peter Selinger 2001-2013
</metadata>
<g transform="translate(0.000000,107.000000) scale(0.100000,-0.100000)"
fill="#000000" stroke="none">
<path d="M750 939 c-39 -57 -62 -101 -62 -117 0 -15 -16 -51 -36 -80 -30 -45
-50 -60 -122 -98 -107 -55 -172 -114 -185 -169 l-10 -40 -112 -3 c-62 -1 -113
-5 -113 -8 0 -2 6 -15 14 -27 8 -12 17 -40 21 -61 32 -185 239 -323 427 -286
116 22 220 96 267 189 42 82 18 98 -27 18 -93 -165 -280 -227 -448 -148 -107
50 -180 144 -192 249 l-5 42 372 0 c323 0 371 2 371 15 0 13 -23 15 -144 15
-80 0 -147 3 -149 8 -3 4 -1 30 4 57 4 28 12 81 18 119 11 77 60 163 96 168
24 4 144 172 145 204 0 26 -18 44 -45 44 -16 0 -39 -24 -85 -91z m100 51 c0
-15 -112 -180 -122 -180 -20 0 -4 38 48 111 51 73 74 94 74 69z m-300 -459
c-18 -32 -41 -69 -51 -80 -22 -24 -49 -28 -49 -8 0 29 121 178 128 158 2 -6
-11 -37 -28 -70z m-76 12 c-20 -27 -44 -63 -52 -81 -20 -41 -48 -39 -45 2 2
31 40 77 88 107 46 29 48 23 9 -28z m115 -53 c-9 -41 -22 -59 -41 -60 -5 0 -8
4 -8 9 0 11 51 103 56 99 1 -2 -2 -24 -7 -48z"/>
<path d="M227 358 c-2 -7 2 -26 10 -42 18 -35 39 -22 24 16 -12 31 -28 43 -34
26z"/>
<path d="M280 236 c0 -17 73 -84 106 -96 65 -25 73 -1 9 30 -24 12 -56 35 -69
51 -26 31 -46 38 -46 15z"/>
</g>
</svg>
